<svg xmlns="http://www.w3.org/2000/svg" width="68.225" height="68.225" viewBox="0 0 68.225 68.225"><defs><style>.a{fill:#fff;}</style></defs><circle cx="34.113" cy="34.113" r="34.113" transform="translate(0)"/><path class="a" d="M19.954-.011a1.52,1.52,0,0,0-1,.285,9.265,9.265,0,0,1,2.182.583,2.574,2.574,0,0,1,1.22,1.518,1.5,1.5,0,0,1-.976,1.545,4.982,4.982,0,0,1-3.348-.027c-2.589-.8-5.123-1.816-7.767-2.44A9.007,9.007,0,0,0,6.1,1.25,6.64,6.64,0,0,0,2.225,3.717a5.731,5.731,0,0,0-.718,5.2A3.581,3.581,0,0,0,4.19,11.348c-.42-.542-1.152-1.1-.949-1.884A3.243,3.243,0,0,1,4.3,7.4a2.481,2.481,0,0,1,2.182-.258c2.643.488,5.2,1.233,7.821,1.843,1.762.38,3.456,1.03,5.245,1.355.027,1.992.014,3.985.014,5.977-.962.84-1.911,1.694-2.86,2.548.949.732,1.884,1.491,2.846,2.209.014,2.833,0,5.666.014,8.512a8.033,8.033,0,0,1-5.91,1.274,8.807,8.807,0,0,1-5.693-3.077,16.99,16.99,0,0,1,1.965-1.044c1.857-.908,3.673-1.87,5.544-2.738.054-4.459.014-8.932.027-13.391-3.145,1.342-6.262,2.738-9.42,4.053A9.678,9.678,0,0,1,9.5,10.345a3.675,3.675,0,0,1,1.572-1.017,4.618,4.618,0,0,0-1.87.325C4.773,11.456.978,15.373.138,20.2A15.545,15.545,0,0,0,.9,27.5a13.99,13.99,0,0,0,5.53,6.682,16.792,16.792,0,0,0,3.836,1.721,13.983,13.983,0,0,0,9.5-1.64A11.171,11.171,0,0,0,24.128,29.1a14.96,14.96,0,0,0,1.22-5.9,16.776,16.776,0,0,0-.949,1.654,15.749,15.749,0,0,1-4.148,4.676c.014-2.819-.027-5.652.027-8.471.962-.691,1.857-1.464,2.819-2.142-.881-.922-1.9-1.708-2.833-2.575-.014-1.979.027-3.958-.014-5.95a5.915,5.915,0,0,0,4.73-2.575A5.537,5.537,0,0,0,25.009,2.2,5.08,5.08,0,0,0,21.7.3C21.133.247,20.536,0,19.954-.011ZM9.775,13.571c.027,4.283,0,8.566.014,12.849-.732.312-1.45.623-2.182.935a14.3,14.3,0,0,1-2.3-4.934,10.847,10.847,0,0,1,.745-7.007C7.294,14.818,8.541,14.194,9.775,13.571Z" transform="translate(20.762 14.844)"/></svg>